<svg data-v-423bf9ae="" xmlns="http://www.w3.org/2000/svg" viewBox="0 0 480 90" class="iconLeftSlogan"><!----><!----><!----><g data-v-423bf9ae="" id="a7631618-8e5a-4459-a908-9a521ae52839" fill="#000000" transform="matrix(5.940593835033989,0,0,5.940593835033989,111.00989081371412,-19.24752479741978)"><path d="M7.10 13.15L8.71 13.15L5.02 3.82L3.51 3.82L-0.17 13.15L1.43 13.15L2.32 10.75L6.21 10.73ZM2.76 9.57L4.27 5.45L5.78 9.57ZM12.53 13.34C13.45 13.34 14.19 13.07 14.80 12.60L13.99 11.58C13.62 11.93 13.11 12.13 12.56 12.13C11.26 12.13 10.49 11.14 10.49 9.84C10.49 8.55 11.26 7.57 12.56 7.57C13.11 7.57 13.62 7.77 13.99 8.12L14.80 7.10C14.19 6.64 13.45 6.36 12.53 6.36C10.47 6.36 9.04 7.89 9.04 9.84C9.04 11.81 10.47 13.34 12.53 13.34ZM18.97 11.93C18.89 11.99 18.65 12.06 18.38 12.06C17.92 12.06 17.65 11.80 17.65 11.20L17.65 7.67L19.05 7.67L19.05 6.53L17.65 6.53L17.65 4.64L16.23 4.64L16.23 6.53L15.36 6.53L15.36 7.67L16.23 7.67L16.23 11.32C16.23 12.91 17.22 13.27 18.04 13.27C18.56 13.27 18.99 13.17 19.16 13.08ZM21.20 5.26C21.71 5.26 22.12 4.86 22.12 4.36C22.12 3.86 21.71 3.46 21.20 3.46C20.69 3.46 20.29 3.86 20.29 4.36C20.29 4.86 20.69 5.26 21.20 5.26ZM20.52 13.15L21.90 13.15L21.90 6.53L20.52 6.53ZM30.13 9.70C30.13 7.73 28.80 6.36 26.88 6.36C24.88 6.36 23.46 7.89 23.46 9.84C23.46 11.80 24.86 13.31 27.04 13.31C28.19 13.31 29.15 12.92 29.75 12.25L28.77 11.46C28.35 11.94 27.78 12.19 27.02 12.19C25.78 12.19 25.05 11.33 24.95 10.15L30.13 10.15ZM26.88 7.50C27.91 7.50 28.58 8.12 28.73 9.17L25.01 9.17C25.21 8.17 25.90 7.50 26.88 7.50ZM36.02 6.53L34.10 11.48L32.16 6.53L30.65 6.53L33.51 13.15L34.68 13.15L37.54 6.53ZM40.41 13.34C41.34 13.34 42.22 12.94 42.67 12.31L42.89 13.15L44.09 13.15L44.09 9.19C44.09 7.31 43.11 6.36 41.15 6.36C40.18 6.36 39.36 6.61 38.73 7.10L39.36 8.08C39.80 7.70 40.37 7.51 41.01 7.51C42.06 7.51 42.67 8.01 42.67 8.90L42.67 9.45L42.50 9.39C39.62 8.31 38.05 9.79 38.05 11.21C38.05 12.45 39.10 13.34 40.41 13.34ZM40.83 12.25C40.00 12.25 39.54 11.72 39.54 11.11C39.54 10.34 40.43 9.57 42.48 10.30L42.67 10.35L42.67 10.54C42.67 11.62 41.80 12.25 40.83 12.25ZM50.69 3.24L50.69 7.32C50.18 6.72 49.45 6.36 48.50 6.36C46.78 6.36 45.41 7.69 45.41 9.84C45.41 12.00 46.78 13.31 48.50 13.31C49.50 13.31 50.27 12.91 50.78 12.25L50.95 13.15L52.11 13.15L52.11 3.24ZM48.84 12.12C47.64 12.12 46.86 11.14 46.86 9.84C46.86 8.55 47.64 7.55 48.84 7.55C50.08 7.55 50.88 8.55 50.88 9.84C50.88 11.14 50.08 12.12 48.84 12.12ZM54.72 5.26C55.23 5.26 55.64 4.86 55.64 4.36C55.64 3.86 55.23 3.46 54.72 3.46C54.21 3.46 53.80 3.86 53.80 4.36C53.80 4.86 54.21 5.26 54.72 5.26ZM54.03 13.15L55.42 13.15L55.42 6.53L54.03 6.53ZM56.70 12.22C57.18 12.88 58.19 13.34 59.43 13.34C61.06 13.34 62.07 12.54 62.07 11.35C62.07 9.00 58.57 9.79 58.57 8.36C58.57 7.86 58.95 7.53 59.72 7.51C60.20 7.50 60.75 7.73 61.15 8.11L61.92 7.22C61.48 6.75 60.64 6.36 59.66 6.36C58.09 6.36 57.12 7.19 57.12 8.41C57.12 10.82 60.56 10.09 60.56 11.38C60.56 11.87 60.16 12.21 59.34 12.21C58.68 12.21 58.09 11.97 57.60 11.35Z"></path></g><defs data-v-423bf9ae=""><linearGradient data-v-423bf9ae="" gradientTransform="rotate(25)" id="8be9006c-a260-4784-a00c-70c518e13274" x1="0%" y1="0%" x2="100%" y2="0%"><stop data-v-423bf9ae="" offset="0%" style="stop-color: rgb(54, 22, 172); stop-opacity: 1;"></stop><stop data-v-423bf9ae="" offset="100%" style="stop-color: rgb(224, 155, 237); stop-opacity: 1;"></stop></linearGradient></defs><g data-v-423bf9ae="" id="24ebd1a7-a365-4a86-b709-727c0598dfc1" transform="matrix(2.8125,0,0,2.8125,0,0)" stroke="none" fill="url(#8be9006c-a260-4784-a00c-70c518e13274)"><path d="M9.382 8.675h13.943v13.943L32 31.293V0H.707zM22.618 23.325H8.675V9.382L0 .707V32h31.293z"></path></g><!----><g data-v-423bf9ae="" id="056605f5-6930-4234-9f8b-22cf12d0cffd" fill="#000000" transform="matrix(0.8982782058547581,0,0,0.8982782058547581,109.74848271498703,57.03568342317883)"><path d="M0.28 3.81L0.28 3.81L0.28 3.81Q0.28 3.65 0.44 3.61L0.44 3.61L0.44 3.61Q0.60 3.57 1.15 3.57L1.15 3.57L1.15 3.57Q1.23 3.57 1.53 3.58L1.53 3.58L1.53 3.58Q1.83 3.60 1.96 3.60L1.96 3.60L1.96 3.60Q2.11 3.60 2.53 3.59L2.53 3.59L2.53 3.59Q2.94 3.58 3.15 3.58L3.15 3.58L3.15 3.58Q3.85 3.58 3.85 3.75L3.85 3.75L3.85 3.75Q3.85 3.91 3.56 4.01L3.56 4.01L3.56 4.01Q3.26 4.12 3.26 4.24L3.26 4.24L3.26 4.24Q3.26 4.38 3.35 4.61L3.35 4.61L3.35 4.61Q3.44 4.83 3.54 4.97L3.54 4.97L3.54 4.97Q3.63 5.11 3.81 5.38L3.81 5.38L3.81 5.38Q3.99 5.64 4.02 5.70L4.02 5.70L4.02 5.70Q4.49 6.45 5.00 7.14L5.00 7.14L5.00 7.14Q5.52 7.83 5.59 7.83L5.59 7.83L5.59 7.83Q5.67 7.83 5.80 7.66L5.80 7.66L5.80 7.66Q5.92 7.50 6.15 7.13L6.15 7.13L6.15 7.13Q6.37 6.75 6.52 6.52L6.52 6.52L6.52 6.52Q6.57 6.45 6.73 6.22L6.73 6.22L6.73 6.22Q6.89 5.98 6.95 5.88L6.95 5.88L6.95 5.88Q7.01 5.78 7.14 5.58L7.14 5.58L7.14 5.58Q7.27 5.38 7.32 5.27L7.32 5.27L7.32 5.27Q7.38 5.17 7.46 5.02L7.46 5.02L7.46 5.02Q7.53 4.87 7.56 4.77L7.56 4.77L7.56 4.77Q7.59 4.68 7.59 4.59L7.59 4.59L7.59 4.59Q7.59 4.14 7.11 4.03L7.11 4.03L7.11 4.03Q7.06 4.02 6.95 4.00L6.95 4.00L6.95 4.00Q6.85 3.99 6.80 3.98L6.80 3.98L6.80 3.98Q6.75 3.96 6.68 3.93L6.68 3.93L6.68 3.93Q6.61 3.91 6.58 3.86L6.58 3.86L6.58 3.86Q6.55 3.81 6.55 3.74L6.55 3.74L6.55 3.74Q6.55 3.57 6.94 3.57L6.94 3.57L6.94 3.57Q7.01 3.57 7.20 3.58L7.20 3.58L7.20 3.58Q7.39 3.58 7.52 3.58L7.52 3.58L7.52 3.58Q7.84 3.58 8.29 3.59L8.29 3.59L8.29 3.59Q8.75 3.60 9.00 3.60L9.00 3.60L9.00 3.60Q9.69 3.60 9.69 3.81L9.69 3.81L9.69 3.81Q9.69 3.86 9.60 3.91L9.60 3.91L9.60 3.91Q9.52 3.95 9.37 4.02L9.37 4.02L9.37 4.02Q9.21 4.09 9.09 4.19L9.09 4.19L9.09 4.19Q8.51 4.63 7.40 6.31L7.40 6.31L7.40 6.31Q6.29 7.99 6.13 8.19L6.13 8.19L6.13 8.19Q5.91 8.47 5.85 8.81L5.85 8.81L5.85 8.81Q5.80 9.14 5.80 9.95L5.80 9.95L5.80 9.95Q5.80 10.14 5.80 10.73L5.80 10.73L5.80 10.73Q5.81 11.33 5.81 11.58L5.81 11.58L5.81 11.91L5.81 11.91Q5.81 12.38 5.97 12.64L5.97 12.64L5.97 12.64Q6.13 12.91 6.27 12.96L6.27 12.96L6.27 12.96Q6.41 13.01 6.55 13.01L6.55 13.01L6.55 13.01Q6.58 13.01 6.69 13.01L6.69 13.01L6.69 13.01Q6.80 13.02 6.83 13.02L6.83 13.02L6.83 13.02Q6.93 13.02 6.99 13.08L6.99 13.08L6.99 13.08Q7.04 13.15 7.04 13.22L7.04 13.22L7.04 13.22Q7.04 13.36 6.97 13.40L6.97 13.40L6.97 13.40Q6.90 13.44 6.71 13.44L6.71 13.44L6.71 13.44Q6.64 13.44 6.10 13.43L6.10 13.43L6.10 13.43Q5.56 13.43 5.31 13.43L5.31 13.43L5.31 13.43Q4.82 13.43 4.41 13.45L4.41 13.45L4.41 13.45Q4.00 13.48 3.77 13.48L3.77 13.48L3.77 13.48Q3.37 13.48 3.37 13.33L3.37 13.33L3.37 13.33Q3.37 13.20 3.45 13.15L3.45 13.15L3.45 13.15Q3.53 13.10 3.71 13.09L3.71 13.09L3.71 13.09Q3.89 13.08 3.98 13.05L3.98 13.05L3.98 13.05Q4.56 12.87 4.56 12.19L4.56 12.19L4.56 12.19Q4.56 12.11 4.57 11.92L4.57 11.92L4.57 11.92Q4.58 11.73 4.58 11.12L4.58 11.12L4.58 11.12Q4.59 10.50 4.59 9.35L4.59 9.35L4.59 9.35Q4.59 9.13 4.56 8.97L4.56 8.97L4.56 8.97Q4.52 8.81 4.47 8.65L4.47 8.65L4.47 8.65Q4.42 8.50 4.24 8.20L4.24 8.20L4.24 8.20Q4.05 7.91 3.86 7.64L3.86 7.64L3.86 7.64Q3.68 7.36 3.24 6.72L3.24 6.72L3.24 6.72Q2.80 6.08 2.39 5.46L2.39 5.46L2.39 5.46Q1.96 4.80 1.61 4.46L1.61 4.46L1.61 4.46Q1.26 4.12 1.07 4.05L1.07 4.05L1.07 4.05Q0.88 3.99 0.63 3.99L0.63 3.99L0.63 3.99Q0.28 3.99 0.28 3.81ZM17.18 8.69L17.18 8.69L17.18 8.69Q17.18 6.34 18.59 4.84L18.59 4.84L18.59 4.84Q20.01 3.33 22.60 3.33L22.60 3.33L22.60 3.33Q23.80 3.33 24.77 3.68L24.77 3.68L24.77 3.68Q25.73 4.03 26.29 4.54L26.29 4.54L26.29 4.54Q26.85 5.05 27.23 5.71L27.23 5.71L27.23 5.71Q27.61 6.37 27.75 6.92L27.75 6.92L27.75 6.92Q27.89 7.48 27.89 7.95L27.89 7.95L27.89 7.95Q27.89 9.86 27.15 11.16L27.15 11.16L27.15 11.16Q26.40 12.47 25.19 13.07L25.19 13.07L25.19 13.07Q23.98 13.66 22.40 13.66L22.40 13.66L22.40 13.66Q20.73 13.66 19.52 12.94L19.52 12.94L19.52 12.94Q18.31 12.21 17.74 11.10L17.74 11.10L17.74 11.10Q17.18 10.00 17.18 8.69ZM18.41 7.98L18.41 7.98L18.41 7.98Q18.41 8.54 18.56 9.19L18.56 9.19L18.56 9.19Q18.72 9.84 19.07 10.54L19.07 10.54L19.07 10.54Q19.42 11.23 19.91 11.78L19.91 11.78L19.91 11.78Q20.41 12.33 21.17 12.69L21.17 12.69L21.17 12.69Q21.94 13.05 22.85 13.05L22.85 13.05L22.85 13.05Q23.32 13.05 23.85 12.90L23.85 12.90L23.85 12.90Q24.37 12.75 24.89 12.45L24.89 12.45L24.89 12.45Q25.41 12.14 25.82 11.70L25.82 11.70L25.82 11.70Q26.22 11.26 26.48 10.62L26.48 10.62L26.48 10.62Q26.74 9.98 26.74 9.24L26.74 9.24L26.74 9.24Q26.74 6.71 25.41 5.30L25.41 5.30L25.41 5.30Q24.08 3.89 22.12 3.89L22.12 3.89L22.12 3.89Q20.58 3.89 19.49 4.93L19.49 4.93L19.49 4.93Q18.41 5.96 18.41 7.98ZM35.78 3.68L35.78 3.68L35.78 3.68Q35.78 3.61 35.80 3.58L35.80 3.58L35.80 3.58Q35.81 3.56 35.88 3.53L35.88 3.53L35.88 3.53Q35.95 3.50 36.11 3.50L36.11 3.50L36.11 3.50Q36.26 3.50 36.75 3.53L36.75 3.53L36.75 3.53Q37.24 3.56 37.69 3.56L37.69 3.56L37.69 3.56Q37.97 3.56 38.20 3.54L38.20 3.54L38.20 3.54Q38.43 3.53 39.00 3.53L39.00 3.53L39.00 3.53Q39.30 3.53 39.30 3.72L39.30 3.72L39.30 3.72Q39.30 3.85 39.20 3.88L39.20 3.88L39.20 3.88Q39.10 3.91 38.95 3.92L38.95 3.92L38.95 3.92Q38.81 3.93 38.66 4.02L38.66 4.02L38.66 4.02Q38.51 4.10 38.42 4.43L38.42 4.43L38.42 4.43Q38.32 4.76 38.32 5.32L38.32 5.32L38.32 5.71L38.32 5.71Q38.32 6.37 38.31 7.37L38.31 7.37L38.31 7.37Q38.30 8.37 38.30 8.74L38.30 8.74L38.30 8.74Q38.30 9.17 38.31 9.39L38.31 9.39L38.31 9.39Q38.32 9.62 38.35 10.04L38.35 10.04L38.35 10.04Q38.37 10.47 38.42 10.72L38.42 10.72L38.42 10.72Q38.47 10.96 38.58 11.32L38.58 11.32L38.58 11.32Q38.70 11.68 38.86 11.89L38.86 11.89L38.86 11.89Q39.02 12.10 39.26 12.35L39.26 12.35L39.26 12.35Q39.51 12.60 39.83 12.73L39.83 12.73L39.83 12.73Q40.15 12.87 40.59 12.96L40.59 12.96L40.59 12.96Q41.02 13.05 41.55 13.05L41.55 13.05L41.55 13.05Q42 13.05 42.25 13.03L42.25 13.03L42.25 13.03Q42.50 13.02 42.95 12.94L42.95 12.94L42.95 12.94Q43.39 12.87 43.64 12.72L43.64 12.72L43.64 12.72Q43.90 12.57 44.23 12.27L44.23 12.27L44.23 12.27Q44.56 11.97 44.74 11.54L44.74 11.54L44.74 11.54Q44.93 11.10 45.05 10.43L45.05 10.43L45.05 10.43Q45.18 9.76 45.18 8.90L45.18 8.90L45.18 8.90Q45.18 7.49 45.17 6.75L45.17 6.75L45.17 6.75Q45.16 6.01 45.16 5.94L45.16 5.94L45.16 5.94Q45.16 5.45 45.14 5.17L45.14 5.17L45.14 5.17Q45.12 4.89 45.00 4.55L45.00 4.55L45.00 4.55Q44.88 4.21 44.66 4.06L44.66 4.06L44.66 4.06Q44.52 3.96 44.30 3.93L44.30 3.93L44.30 3.93Q44.07 3.89 43.93 3.87L43.93 3.87L43.93 3.87Q43.79 3.85 43.79 3.75L43.79 3.75L43.79 3.75Q43.79 3.53 44.07 3.53L44.07 3.53L44.07 3.53Q44.16 3.53 44.62 3.54L44.62 3.54L44.62 3.54Q45.08 3.56 45.15 3.56L45.15 3.56L45.15 3.56Q45.49 3.56 45.86 3.54L45.86 3.54L45.86 3.54Q46.24 3.51 46.34 3.51L46.34 3.51L46.34 3.51Q46.63 3.51 46.63 3.70L46.63 3.70L46.63 3.70Q46.63 3.81 46.33 3.98L46.33 3.98L46.33 3.98Q46.03 4.16 45.96 4.30L45.96 4.30L45.96 4.30Q45.81 4.59 45.81 5.22L45.81 5.22L45.81 5.22Q45.81 5.32 45.81 5.62L45.81 5.62L45.81 5.62Q45.82 5.92 45.82 6.16L45.82 6.16L45.82 6.16Q45.82 8.85 45.60 10.28L45.60 10.28L45.60 10.28Q45.37 11.70 44.92 12.36L44.92 12.36L44.92 12.36Q44.46 13.01 43.55 13.40L43.55 13.40L43.55 13.40Q42.81 13.71 41.55 13.71L41.55 13.71L41.55 13.71Q39.21 13.71 38.23 12.81L38.23 12.81L38.23 12.81Q37.46 12.10 37.28 11.09L37.28 11.09L37.28 11.09Q37.10 10.09 37.10 7.64L37.10 7.64L37.10 7.41L37.10 7.41Q37.10 6.86 37.11 6.20L37.11 6.20L37.11 6.20Q37.13 5.54 37.13 5.39L37.13 5.39L37.13 5.39Q37.13 4.62 36.95 4.33L36.95 4.33L36.95 4.33Q36.76 4.05 36.09 3.95L36.09 3.95L36.09 3.95Q35.78 3.91 35.78 3.68ZM54.19 3.70L54.19 3.70L54.19 3.70Q54.19 3.47 54.60 3.47L54.60 3.47L56.92 3.47L56.92 3.47Q57.25 3.47 57.67 3.45L57.67 3.45L57.67 3.45Q58.09 3.43 58.32 3.43L58.32 3.43L58.32 3.43Q59.58 3.43 60.48 4.07L60.48 4.07L60.48 4.07Q61.38 4.70 61.38 5.78L61.38 5.78L61.38 5.78Q61.38 6.50 61.10 7.03L61.10 7.03L61.10 7.03Q60.83 7.57 60.50 7.81L60.50 7.81L60.50 7.81Q60.17 8.05 59.90 8.22L59.90 8.22L59.90 8.22Q59.63 8.40 59.63 8.46L59.63 8.46L59.63 8.46Q59.63 8.62 60.80 10.27L60.80 10.27L60.80 10.27Q61.98 11.91 62.41 12.38L62.41 12.38L62.41 12.38Q62.94 13.03 63.70 13.03L63.70 13.03L63.70 13.03Q63.90 13.03 63.90 13.20L63.90 13.20L63.90 13.20Q63.90 13.41 63.73 13.48L63.73 13.48L63.73 13.48Q63.56 13.55 62.86 13.55L62.86 13.55L62.86 13.55Q62.20 13.55 61.66 13.23L61.66 13.23L61.66 13.23Q60.96 12.82 59.29 10.09L59.29 10.09L59.29 10.09Q59.19 9.94 59.15 9.87L59.15 9.87L59.15 9.87Q58.48 8.78 58.11 8.78L58.11 8.78L57.82 8.78L56.97 8.78L56.97 8.78Q56.80 8.78 56.76 8.92L56.76 8.92L56.76 8.92Q56.73 9.06 56.73 9.77L56.73 9.77L56.73 9.77Q56.73 10.44 56.73 10.88L56.73 10.88L56.73 10.88Q56.73 11.31 56.73 11.43L56.73 11.43L56.73 11.43Q56.74 11.55 56.74 11.63L56.74 11.63L56.74 11.63Q56.74 11.70 56.74 11.75L56.74 11.75L56.74 11.75Q56.74 12.32 57.01 12.63L57.01 12.63L57.01 12.63Q57.27 12.95 57.60 13.00L57.60 13.00L57.60 13.00Q57.93 13.05 58.20 13.11L58.20 13.11L58.20 13.11Q58.46 13.17 58.46 13.31L58.46 13.31L58.46 13.31Q58.46 13.54 58.21 13.54L58.21 13.54L58.21 13.54Q58.20 13.54 57.25 13.49L57.25 13.49L57.25 13.49Q56.29 13.44 56.21 13.44L56.21 13.44L56.21 13.44Q55.80 13.44 55.24 13.47L55.24 13.47L55.24 13.47Q54.68 13.50 54.67 13.50L54.67 13.50L54.67 13.50Q54.38 13.50 54.38 13.27L54.38 13.27L54.38 13.27Q54.38 13.12 54.56 13.05L54.56 13.05L54.56 13.05Q54.74 12.99 54.96 12.96L54.96 12.96L54.96 12.96Q55.19 12.94 55.37 12.66L55.37 12.66L55.37 12.66Q55.55 12.38 55.55 11.86L55.55 11.86L55.55 11.86Q55.55 11.49 55.56 9.90L55.56 9.90L55.56 9.90Q55.57 8.30 55.57 7.45L55.57 7.45L55.57 7.45Q55.57 6.58 55.56 5.86L55.56 5.86L55.56 5.86Q55.55 5.14 55.55 5.08L55.55 5.08L55.55 5.08Q55.55 4.56 55.34 4.29L55.34 4.29L55.34 4.29Q55.13 4.02 54.87 3.98L54.87 3.98L54.87 3.98Q54.61 3.95 54.40 3.89L54.40 3.89L54.40 3.89Q54.19 3.84 54.19 3.70ZM56.73 5.54L56.73 5.94L56.73 5.94Q56.73 7.38 56.74 7.72L56.74 7.72L56.74 7.72Q56.76 8.06 56.84 8.12L56.84 8.12L56.84 8.12Q57.05 8.25 57.44 8.25L57.44 8.25L57.58 8.25L57.99 8.25L57.99 8.25Q59.18 8.25 59.69 7.70L59.69 7.70L59.69 7.70Q60.20 7.15 60.20 6.30L60.20 6.30L60.20 6.30Q60.20 5.43 59.52 4.72L59.52 4.72L59.52 4.72Q58.84 4.00 57.47 4.00L57.47 4.00L57.47 4.00Q56.95 4.00 56.84 4.28L56.84 4.28L56.84 4.28Q56.73 4.55 56.73 5.54L56.73 5.54ZM81.23 3.68L81.23 3.68L81.23 3.68Q81.23 3.64 81.25 3.60L81.25 3.60L81.25 3.60Q81.27 3.56 81.36 3.50L81.36 3.50L81.36 3.50Q81.45 3.44 81.59 3.44L81.59 3.44L81.97 3.44L81.97 3.44Q82.31 3.44 83.06 3.49L83.06 3.49L83.06 3.49Q83.80 3.53 85.01 3.53L85.01 3.53L85.01 3.53Q86.00 3.53 86.77 3.49L86.77 3.49L86.77 3.49Q87.54 3.46 88.19 3.46L88.19 3.46L88.19 3.46Q88.42 3.46 88.42 3.79L88.42 3.79L88.42 3.79Q88.42 3.92 88.40 4.11L88.40 4.11L88.40 4.11Q88.37 4.30 88.31 4.61L88.31 4.61L88.31 4.61Q88.26 4.93 88.23 5.22L88.23 5.22L88.23 5.22Q88.20 5.50 88.02 5.50L88.02 5.50L88.02 5.50Q87.82 5.50 87.82 5.22L87.82 5.22L87.82 5.22Q87.82 4.30 87.18 4.26L87.18 4.26L87.18 4.26Q85.06 4.09 84.66 4.09L84.66 4.09L84.66 4.09Q84.03 4.09 83.88 4.24L83.88 4.24L83.88 4.24Q83.73 4.40 83.72 4.87L83.72 4.87L83.72 4.87Q83.72 4.94 83.72 4.98L83.72 4.98L83.72 4.98Q83.68 5.74 83.68 7.32L83.68 7.32L83.68 7.32Q83.68 8.01 83.93 8.02L83.93 8.02L83.93 8.02Q84.00 8.02 84.12 8.03L84.12 8.03L84.12 8.03Q84.24 8.04 84.28 8.04L84.28 8.04L84.28 8.04Q84.38 8.04 84.57 8.03L84.57 8.03L84.57 8.03Q84.77 8.02 84.88 8.02L84.88 8.02L85.32 8.02L85.32 8.02Q86.16 8.02 86.43 7.97L86.43 7.97L86.43 7.97Q86.70 7.92 86.93 7.77L86.93 7.77L86.93 7.77Q87.05 7.69 87.12 7.57L87.12 7.57L87.12 7.57Q87.19 7.46 87.22 7.31L87.22 7.31L87.22 7.31Q87.25 7.15 87.29 7.08L87.29 7.08L87.29 7.08Q87.33 7.01 87.46 7.01L87.46 7.01L87.46 7.01Q87.58 7.01 87.61 7.06L87.61 7.06L87.61 7.06Q87.64 7.10 87.64 7.24L87.64 7.24L87.64 7.24Q87.64 7.34 87.58 7.73L87.58 7.73L87.58 7.73Q87.51 8.12 87.51 8.40L87.51 8.40L87.51 8.40Q87.51 8.67 87.56 9.05L87.56 9.05L87.56 9.05Q87.61 9.44 87.61 9.55L87.61 9.55L87.61 9.55Q87.61 9.77 87.56 9.83L87.56 9.83L87.56 9.83Q87.51 9.90 87.42 9.90L87.42 9.90L87.42 9.90Q87.18 9.90 87.12 9.55L87.12 9.55L87.12 9.55Q87.12 9.52 87.11 9.42L87.11 9.42L87.11 9.42Q87.09 9.32 87.09 9.28L87.09 9.28L87.09 9.28Q87.08 9.24 87.05 9.16L87.05 9.16L87.05 9.16Q87.02 9.09 87.00 9.04L87.00 9.04L87.00 9.04Q86.97 9.00 86.93 8.95L86.93 8.95L86.93 8.95Q86.88 8.90 86.81 8.88L86.81 8.88L86.81 8.88Q86.62 8.79 86.11 8.74L86.11 8.74L86.11 8.74Q85.61 8.68 85.46 8.68L85.46 8.68L84.24 8.68L84.24 8.68Q83.66 8.68 83.66 8.95L83.66 8.95L83.66 8.95Q83.66 9.35 83.65 9.96L83.65 9.96L83.65 9.96Q83.64 10.57 83.64 10.96L83.64 10.96L83.64 10.96Q83.64 11.06 83.63 11.25L83.63 11.25L83.63 11.25Q83.62 11.44 83.62 11.52L83.62 11.52L83.62 11.52Q83.62 11.80 83.68 12.08L83.68 12.08L83.68 12.08Q83.73 12.36 84.01 12.67L84.01 12.67L84.01 12.67Q84.28 12.98 84.74 12.98L84.74 12.98L84.74 12.98Q85.16 12.98 85.16 13.23L85.16 13.23L85.16 13.23Q85.16 13.27 85.13 13.33L85.13 13.33L85.13 13.33Q85.11 13.38 85.00 13.44L85.00 13.44L85.00 13.44Q84.90 13.50 84.73 13.50L84.73 13.50L84.73 13.50Q84.50 13.50 84.02 13.44L84.02 13.44L84.02 13.44Q83.54 13.38 83.37 13.38L83.37 13.38L83.37 13.38Q82.98 13.38 82.50 13.43L82.50 13.43L82.50 13.43Q82.01 13.47 81.68 13.47L81.68 13.47L81.68 13.47Q81.40 13.47 81.40 13.31L81.40 13.31L81.40 13.31Q81.40 13.13 81.46 13.09L81.46 13.09L81.46 13.09Q81.52 13.05 82.00 12.88L82.00 12.88L82.00 12.88Q82.36 12.75 82.45 12.13L82.45 12.13L82.45 12.13Q82.53 11.51 82.54 9.60L82.54 9.60L82.54 9.60Q82.54 8.86 82.54 8.44L82.54 8.44L82.54 8.44Q82.54 8.06 82.57 7.26L82.57 7.26L82.57 7.26Q82.59 6.45 82.59 6.01L82.59 6.01L82.59 5.19L82.59 5.19Q82.59 4.27 81.93 3.96L81.93 3.96L81.93 3.96Q81.83 3.92 81.69 3.90L81.69 3.90L81.69 3.90Q81.55 3.88 81.46 3.88L81.46 3.88L81.46 3.88Q81.37 3.88 81.30 3.83L81.30 3.83L81.30 3.83Q81.23 3.78 81.23 3.68ZM95.16 13.33L95.16 13.33L95.16 13.33Q95.16 13.13 95.37 13.06L95.37 13.06L95.37 13.06Q95.82 12.89 96.15 12.31L96.15 12.31L96.15 12.31Q96.49 11.73 97.82 8.83L97.82 8.83L97.82 8.83Q99.19 5.87 100.24 3.63L100.24 3.63L100.24 3.63Q100.34 3.42 100.42 3.36L100.42 3.36L100.42 3.36Q100.49 3.30 100.66 3.30L100.66 3.30L100.66 3.30Q100.79 3.30 100.83 3.36L100.83 3.36L100.83 3.36Q100.87 3.42 101.01 3.82L101.01 3.82L101.01 3.82Q101.09 4.06 101.16 4.23L101.16 4.23L101.16 4.23Q101.22 4.40 101.36 4.77L101.36 4.77L101.36 4.77Q101.50 5.15 101.67 5.56L101.67 5.56L101.67 5.56Q102.12 6.66 103.22 9.22L103.22 9.22L103.22 9.22Q104.31 11.77 104.41 11.98L104.41 11.98L104.41 11.98Q104.65 12.46 104.94 12.71L104.94 12.71L104.94 12.71Q105.24 12.95 105.46 12.97L105.46 12.97L105.46 12.97Q105.67 12.99 105.82 13.04L105.82 13.04L105.82 13.04Q105.97 13.09 105.97 13.26L105.97 13.26L105.97 13.26Q105.97 13.47 105.59 13.47L105.59 13.47L105.59 13.47Q105.43 13.47 104.99 13.43L104.99 13.43L104.99 13.43Q104.54 13.38 104.33 13.38L104.33 13.38L104.33 13.38Q104.06 13.38 103.64 13.41L103.64 13.41L103.64 13.41Q103.22 13.44 103.03 13.44L103.03 13.44L103.03 13.44Q102.59 13.44 102.47 13.40L102.47 13.40L102.47 13.40Q102.35 13.37 102.35 13.24L102.35 13.24L102.35 13.24Q102.35 13.15 102.47 13.08L102.47 13.08L102.47 13.08Q102.58 13.02 102.70 13.00L102.70 13.00L102.70 13.00Q102.83 12.98 102.94 12.87L102.94 12.87L102.94 12.87Q103.05 12.77 103.05 12.59L103.05 12.59L103.05 12.59Q103.05 12.28 102.70 11.33L102.70 11.33L102.70 11.33Q102.35 10.37 102.12 9.93L102.12 9.93L102.12 9.93Q101.99 9.69 101.54 9.69L101.54 9.69L101.54 9.69Q101.47 9.69 100.93 9.70L100.93 9.70L100.93 9.70Q100.38 9.72 99.85 9.72L99.85 9.72L99.11 9.72L99.11 9.72Q98.48 9.72 98.32 9.79L98.32 9.79L98.32 9.79Q98.15 9.86 98.03 10.12L98.03 10.12L98.03 10.12Q97.94 10.30 97.75 10.70L97.75 10.70L97.75 10.70Q97.55 11.10 97.48 11.26L97.48 11.26L97.48 11.26Q97.41 11.41 97.31 11.65L97.31 11.65L97.31 11.65Q97.20 11.90 97.17 12.05L97.17 12.05L97.17 12.05Q97.13 12.19 97.13 12.31L97.13 12.31L97.13 12.31Q97.13 12.63 97.29 12.80L97.29 12.80L97.29 12.80Q97.45 12.96 97.65 12.98L97.65 12.98L97.65 12.98Q97.85 13.01 98.01 13.06L98.01 13.06L98.01 13.06Q98.17 13.12 98.17 13.26L98.17 13.26L98.17 13.26Q98.17 13.36 98.13 13.40L98.13 13.40L98.13 13.40Q98.08 13.45 97.93 13.45L97.93 13.45L97.93 13.45Q97.85 13.45 97.45 13.45L97.45 13.45L97.45 13.45Q97.05 13.44 96.77 13.44L96.77 13.44L96.77 13.44Q96.46 13.44 96.08 13.47L96.08 13.47L96.08 13.47Q95.69 13.50 95.56 13.50L95.56 13.50L95.56 13.50Q95.16 13.50 95.16 13.33ZM98.67 8.71L98.67 8.71L98.67 8.71Q98.67 8.89 98.80 8.93L98.80 8.93L98.80 8.93Q98.92 8.97 99.39 8.97L99.39 8.97L99.82 8.97L101.15 8.96L101.15 8.96Q101.70 8.96 101.70 8.74L101.70 8.74L101.70 8.74Q101.70 8.55 101.01 7.01L101.01 7.01L101.01 7.01Q100.32 5.46 100.14 5.46L100.14 5.46L100.14 5.46Q100.02 5.46 99.34 7.01L99.34 7.01L99.34 7.01Q98.67 8.55 98.67 8.71ZM111.55 3.70L111.55 3.70L111.55 3.70Q111.55 3.50 111.94 3.50L111.94 3.50L111.94 3.50Q112.01 3.50 112.48 3.53L112.48 3.53L112.48 3.53Q112.95 3.56 113.48 3.56L113.48 3.56L113.48 3.56Q113.61 3.56 113.93 3.54L113.93 3.54L113.93 3.54Q114.24 3.53 114.39 3.53L114.39 3.53L114.39 3.53Q114.72 3.53 114.79 3.56L114.79 3.56L114.79 3.56Q114.86 3.58 114.86 3.68L114.86 3.68L114.86 3.68Q114.86 3.77 114.72 3.84L114.72 3.84L114.72 3.84Q114.58 3.91 114.43 4.02L114.43 4.02L114.43 4.02Q114.28 4.14 114.28 4.34L114.28 4.34L114.28 4.34Q114.28 4.52 114.33 4.71L114.33 4.71L114.33 4.71Q114.38 4.90 114.55 5.29L114.55 5.29L114.55 5.29Q114.72 5.68 114.89 6.08L114.89 6.08L114.89 6.08Q115.07 6.47 115.47 7.34L115.47 7.34L115.47 7.34Q115.86 8.22 116.24 9.07L116.24 9.07L116.24 9.07Q117.42 11.77 117.64 11.77L117.64 11.77L117.64 11.77Q117.71 11.77 118.45 10.08L118.45 10.08L118.45 10.08Q119.18 8.39 119.90 6.54L119.90 6.54L119.90 6.54Q120.61 4.69 120.61 4.35L120.61 4.35L120.61 4.35Q120.61 4.13 120.45 4.01L120.45 4.01L120.45 4.01Q120.29 3.89 120.11 3.87L120.11 3.87L120.11 3.87Q119.92 3.85 119.76 3.80L119.76 3.80L119.76 3.80Q119.60 3.75 119.60 3.64L119.60 3.64L119.60 3.64Q119.60 3.54 119.65 3.52L119.65 3.52L119.65 3.52Q119.70 3.50 119.90 3.50L119.90 3.50L119.90 3.50Q119.94 3.50 120.22 3.51L120.22 3.51L120.22 3.51Q120.50 3.51 120.78 3.51L120.78 3.51L120.78 3.51Q121.03 3.51 121.34 3.50L121.34 3.50L121.34 3.50Q121.66 3.49 122.02 3.49L122.02 3.49L122.02 3.49Q122.29 3.49 122.29 3.68L122.29 3.68L122.29 3.68Q122.29 3.78 122.20 3.85L122.20 3.85L122.20 3.85Q122.11 3.92 121.98 3.98L121.98 3.98L121.98 3.98Q121.86 4.03 121.69 4.21L121.69 4.21L121.69 4.21Q121.52 4.40 121.39 4.69L121.39 4.69L118.27 11.80L118.27 11.80Q117.94 12.56 117.61 13.34L117.61 13.34L117.61 13.34Q117.46 13.72 117.42 13.79L117.42 13.79L117.42 13.79Q117.38 13.86 117.31 13.86L117.31 13.86L117.31 13.86Q117.05 13.86 116.68 12.89L116.68 12.89L116.68 12.89Q116.31 11.98 115.23 9.65L115.23 9.65L115.23 9.65Q114.70 8.48 114.27 7.50L114.27 7.50L114.27 7.50Q113.83 6.52 113.65 6.06L113.65 6.06L113.65 6.06Q113.46 5.60 113.30 5.24L113.30 5.24L113.30 5.24Q113.13 4.87 113.05 4.72L113.05 4.72L113.05 4.72Q112.97 4.56 112.85 4.44L112.85 4.44L112.85 4.44Q112.62 4.17 112.36 4.06L112.36 4.06L112.36 4.06Q112.10 3.95 111.94 3.96L111.94 3.96L111.94 3.96Q111.78 3.96 111.66 3.91L111.66 3.91L111.66 3.91Q111.55 3.86 111.55 3.70ZM129.84 8.69L129.84 8.69L129.84 8.69Q129.84 6.34 131.25 4.84L131.25 4.84L131.25 4.84Q132.66 3.33 135.25 3.33L135.25 3.33L135.25 3.33Q136.46 3.33 137.42 3.68L137.42 3.68L137.42 3.68Q138.39 4.03 138.95 4.54L138.95 4.54L138.95 4.54Q139.51 5.05 139.89 5.71L139.89 5.71L139.89 5.71Q140.27 6.37 140.41 6.92L140.41 6.92L140.41 6.92Q140.55 7.48 140.55 7.95L140.55 7.95L140.55 7.95Q140.55 9.86 139.80 11.16L139.80 11.16L139.80 11.16Q139.06 12.47 137.85 13.07L137.85 13.07L137.85 13.07Q136.64 13.66 135.06 13.66L135.06 13.66L135.06 13.66Q133.39 13.66 132.18 12.94L132.18 12.94L132.18 12.94Q130.97 12.21 130.40 11.10L130.40 11.10L130.40 11.10Q129.84 10.00 129.84 8.69ZM131.07 7.98L131.07 7.98L131.07 7.98Q131.07 8.54 131.22 9.19L131.22 9.19L131.22 9.19Q131.38 9.84 131.73 10.54L131.73 10.54L131.73 10.54Q132.08 11.23 132.57 11.78L132.57 11.78L132.57 11.78Q133.07 12.33 133.83 12.69L133.83 12.69L133.83 12.69Q134.60 13.05 135.51 13.05L135.51 13.05L135.51 13.05Q135.98 13.05 136.51 12.90L136.51 12.90L136.51 12.90Q137.03 12.75 137.55 12.45L137.55 12.45L137.55 12.45Q138.07 12.14 138.47 11.70L138.47 11.70L138.47 11.70Q138.88 11.26 139.14 10.62L139.14 10.62L139.14 10.62Q139.40 9.98 139.40 9.24L139.40 9.24L139.40 9.24Q139.40 6.71 138.07 5.30L138.07 5.30L138.07 5.30Q136.74 3.89 134.78 3.89L134.78 3.89L134.78 3.89Q133.24 3.89 132.15 4.93L132.15 4.93L132.15 4.93Q131.07 5.96 131.07 7.98ZM148.44 3.70L148.44 3.70L148.44 3.70Q148.44 3.47 148.85 3.47L148.85 3.47L151.17 3.47L151.17 3.47Q151.49 3.47 151.91 3.45L151.91 3.45L151.91 3.45Q152.33 3.43 152.57 3.43L152.57 3.43L152.57 3.43Q153.83 3.43 154.73 4.07L154.73 4.07L154.73 4.07Q155.62 4.70 155.62 5.78L155.62 5.78L155.62 5.78Q155.62 6.50 155.35 7.03L155.35 7.03L155.35 7.03Q155.08 7.57 154.75 7.81L154.75 7.81L154.75 7.81Q154.42 8.05 154.15 8.22L154.15 8.22L154.15 8.22Q153.87 8.40 153.87 8.46L153.87 8.46L153.87 8.46Q153.87 8.62 155.05 10.27L155.05 10.27L155.05 10.27Q156.23 11.91 156.66 12.38L156.66 12.38L156.66 12.38Q157.19 13.03 157.95 13.03L157.95 13.03L157.95 13.03Q158.14 13.03 158.14 13.20L158.14 13.20L158.14 13.20Q158.14 13.41 157.98 13.48L157.98 13.48L157.98 13.48Q157.81 13.55 157.11 13.55L157.11 13.55L157.11 13.55Q156.45 13.55 155.90 13.23L155.90 13.23L155.90 13.23Q155.20 12.82 153.54 10.09L153.54 10.09L153.54 10.09Q153.44 9.94 153.40 9.87L153.40 9.87L153.40 9.87Q152.73 8.78 152.36 8.78L152.36 8.78L152.07 8.78L151.21 8.78L151.21 8.78Q151.05 8.78 151.01 8.92L151.01 8.92L151.01 8.92Q150.98 9.06 150.98 9.77L150.98 9.77L150.98 9.77Q150.98 10.44 150.98 10.88L150.98 10.88L150.98 10.88Q150.98 11.31 150.98 11.43L150.98 11.43L150.98 11.43Q150.99 11.55 150.99 11.63L150.99 11.63L150.99 11.63Q150.99 11.70 150.99 11.75L150.99 11.75L150.99 11.75Q150.99 12.32 151.26 12.63L151.26 12.63L151.26 12.63Q151.52 12.95 151.85 13.00L151.85 13.00L151.85 13.00Q152.18 13.05 152.45 13.11L152.45 13.11L152.45 13.11Q152.71 13.17 152.71 13.31L152.71 13.31L152.71 13.31Q152.71 13.54 152.46 13.54L152.46 13.54L152.46 13.54Q152.45 13.54 151.49 13.49L151.49 13.49L151.49 13.49Q150.54 13.44 150.46 13.44L150.46 13.44L150.46 13.44Q150.05 13.44 149.49 13.47L149.49 13.47L149.49 13.47Q148.93 13.50 148.92 13.50L148.92 13.50L148.92 13.50Q148.62 13.50 148.62 13.27L148.62 13.27L148.62 13.27Q148.62 13.12 148.81 13.05L148.81 13.05L148.81 13.05Q148.99 12.99 149.21 12.96L149.21 12.96L149.21 12.96Q149.44 12.94 149.62 12.66L149.62 12.66L149.62 12.66Q149.80 12.38 149.80 11.86L149.80 11.86L149.80 11.86Q149.80 11.49 149.81 9.90L149.81 9.90L149.81 9.90Q149.81 8.30 149.81 7.45L149.81 7.45L149.81 7.45Q149.81 6.58 149.81 5.86L149.81 5.86L149.81 5.86Q149.80 5.14 149.80 5.08L149.80 5.08L149.80 5.08Q149.80 4.56 149.59 4.29L149.59 4.29L149.59 4.29Q149.38 4.02 149.12 3.98L149.12 3.98L149.12 3.98Q148.86 3.95 148.65 3.89L148.65 3.89L148.65 3.89Q148.44 3.84 148.44 3.70ZM150.98 5.54L150.98 5.94L150.98 5.94Q150.98 7.38 150.99 7.72L150.99 7.72L150.99 7.72Q151.00 8.06 151.09 8.12L151.09 8.12L151.09 8.12Q151.30 8.25 151.69 8.25L151.69 8.25L151.83 8.25L152.24 8.25L152.24 8.25Q153.43 8.25 153.94 7.70L153.94 7.70L153.94 7.70Q154.45 7.15 154.45 6.30L154.45 6.30L154.45 6.30Q154.45 5.43 153.77 4.72L153.77 4.72L153.77 4.72Q153.09 4.00 151.72 4.00L151.72 4.00L151.72 4.00Q151.20 4.00 151.09 4.28L151.09 4.28L151.09 4.28Q150.98 4.55 150.98 5.54L150.98 5.54ZM165.49 3.71L165.49 3.71L165.49 3.71Q165.49 3.50 165.89 3.50L165.89 3.50L165.89 3.50Q166.03 3.50 166.53 3.53L166.53 3.53L166.53 3.53Q167.03 3.56 167.47 3.56L167.47 3.56L167.47 3.56Q167.73 3.56 167.98 3.54L167.98 3.54L167.98 3.54Q168.22 3.53 168.70 3.53L168.70 3.53L168.70 3.53Q169.08 3.53 169.08 3.72L169.08 3.72L169.08 3.72Q169.08 3.84 168.43 4.10L168.43 4.10L168.43 4.10Q167.99 4.28 167.99 5.71L167.99 5.71L167.99 5.71Q167.99 7.60 167.97 9.05L167.97 9.05L167.97 9.05Q167.94 10.50 167.94 10.89L167.94 10.89L167.94 10.89Q167.94 12.07 168.29 12.59L168.29 12.59L168.29 12.59Q168.60 13.02 168.97 13.02L168.97 13.02L168.97 13.02Q168.99 13.02 169.11 13.03L169.11 13.03L169.11 13.03Q169.22 13.03 169.25 13.03L169.25 13.03L169.25 13.03Q169.34 13.03 169.44 13.08L169.44 13.08L169.44 13.08Q169.54 13.13 169.54 13.19L169.54 13.19L169.54 13.19Q169.54 13.34 169.46 13.39L169.46 13.39L169.46 13.39Q169.39 13.44 169.19 13.44L169.19 13.44L169.19 13.44Q168.77 13.44 168.41 13.41L168.41 13.41L168.41 13.41Q168.06 13.38 167.86 13.38L167.86 13.38L167.86 13.38Q167.47 13.38 167.01 13.42L167.01 13.42L167.01 13.42Q166.54 13.45 166.32 13.45L166.32 13.45L166.32 13.45Q165.69 13.45 165.69 13.24L165.69 13.24L165.69 13.24Q165.69 13.12 165.82 13.07L165.82 13.07L165.82 13.07Q165.96 13.02 166.12 13.00L166.12 13.00L166.12 13.00Q166.29 12.98 166.47 12.82L166.47 12.82L166.47 12.82Q166.66 12.66 166.73 12.35L166.73 12.35L166.73 12.35Q166.75 12.25 166.82 10.76L166.82 10.76L166.82 10.76Q166.88 9.27 166.88 8.61L166.88 8.61L166.88 7.81L166.88 7.81Q166.88 7.63 166.89 7.12L166.89 7.12L166.89 7.12Q166.89 6.61 166.89 6.30L166.89 6.30L166.89 5.66L166.89 5.66Q166.89 5.04 166.84 4.63L166.84 4.63L166.84 4.63Q166.80 4.30 166.47 4.12L166.47 4.12L166.47 4.12Q166.14 3.93 165.79 3.92L165.79 3.92L165.79 3.92Q165.49 3.91 165.49 3.71ZM177.09 5.32L177.09 5.32L177.09 5.32Q177.09 4.76 177.23 3.88L177.23 3.88L177.23 3.88Q177.23 3.85 177.23 3.78L177.23 3.78L177.23 3.78Q177.24 3.71 177.25 3.69L177.25 3.69L177.25 3.69Q177.25 3.67 177.26 3.62L177.26 3.62L177.26 3.62Q177.27 3.57 177.28 3.55L177.28 3.55L177.28 3.55Q177.30 3.53 177.32 3.49L177.32 3.49L177.32 3.49Q177.34 3.46 177.37 3.44L177.37 3.44L177.37 3.44Q177.39 3.43 177.44 3.42L177.44 3.42L177.44 3.42Q177.48 3.40 177.53 3.39L177.53 3.39L177.53 3.39Q177.59 3.39 177.66 3.39L177.66 3.39L177.66 3.39Q177.88 3.39 178.84 3.44L178.84 3.44L178.84 3.44Q179.80 3.50 181.61 3.50L181.61 3.50L181.61 3.50Q184.69 3.50 185.92 3.43L185.92 3.43L185.92 3.43Q185.93 3.43 185.97 3.42L185.97 3.42L185.97 3.42Q186.00 3.42 186.02 3.42L186.02 3.42L186.02 3.42Q186.17 3.42 186.23 3.50L186.23 3.50L186.23 3.50Q186.28 3.58 186.28 3.65L186.28 3.65L186.28 3.65Q186.28 3.75 186.33 4.24L186.33 4.24L186.33 4.24Q186.37 4.73 186.37 4.79L186.37 4.79L186.37 4.79Q186.37 5.14 186.33 5.23L186.33 5.23L186.33 5.23Q186.28 5.32 186.14 5.32L186.14 5.32L186.14 5.32Q186.03 5.32 185.99 5.15L185.99 5.15L185.99 5.15Q185.88 4.75 185.79 4.60L185.79 4.60L185.79 4.60Q185.71 4.45 185.43 4.34L185.43 4.34L185.43 4.34Q185.15 4.23 184.58 4.23L184.58 4.23L182.76 4.23L182.76 4.23Q182.42 4.23 182.34 4.36L182.34 4.36L182.34 4.36Q182.27 4.49 182.27 5.12L182.27 5.12L182.27 5.81L182.27 5.81Q182.27 7.69 182.25 9.11L182.25 9.11L182.25 9.11Q182.22 10.54 182.22 10.93L182.22 10.93L182.22 10.93Q182.22 11.13 182.22 11.43L182.22 11.43L182.22 11.43Q182.21 11.73 182.21 11.84L182.21 11.84L182.21 11.84Q182.21 12.45 182.41 12.64L182.41 12.64L182.41 12.64Q182.59 12.81 182.81 12.90L182.81 12.90L182.81 12.90Q183.04 12.99 183.20 13.01L183.20 13.01L183.20 13.01Q183.36 13.02 183.47 13.08L183.47 13.08L183.47 13.08Q183.58 13.13 183.58 13.26L183.58 13.26L183.58 13.26Q183.58 13.41 183.51 13.45L183.51 13.45L183.51 13.45Q183.44 13.50 183.25 13.50L183.25 13.50L183.25 13.50Q183.08 13.50 182.50 13.44L182.50 13.44L182.50 13.44Q181.93 13.38 181.69 13.38L181.69 13.38L181.69 13.38Q181.52 13.38 181.01 13.43L181.01 13.43L181.01 13.43Q180.50 13.48 180.26 13.48L180.26 13.48L180.26 13.48Q179.75 13.48 179.75 13.26L179.75 13.26L179.75 13.26Q179.75 13.12 179.83 13.07L179.83 13.07L179.83 13.07Q179.91 13.02 180.16 12.98L180.16 12.98L180.16 12.98Q180.40 12.95 180.47 12.94L180.47 12.94L180.47 12.94Q180.95 12.82 181.01 12.38L181.01 12.38L181.01 12.38Q181.15 11.14 181.15 7.08L181.15 7.08L181.13 4.58L181.13 4.58Q181.13 4.31 180.98 4.25L180.98 4.25L180.98 4.25Q180.82 4.19 180.07 4.19L180.07 4.19L180.07 4.19Q179.09 4.19 178.59 4.24L178.59 4.24L178.59 4.24Q178.09 4.30 178.01 4.35L178.01 4.35L178.01 4.35Q177.93 4.40 177.81 4.54L177.81 4.54L177.81 4.54Q177.69 4.70 177.61 4.91L177.61 4.91L177.61 4.91Q177.53 5.11 177.51 5.24L177.51 5.24L177.51 5.24Q177.49 5.38 177.43 5.47L177.43 5.47L177.43 5.47Q177.37 5.56 177.24 5.56L177.24 5.56L177.24 5.56Q177.09 5.56 177.09 5.32ZM193.93 3.65L193.93 3.65L193.93 3.65Q193.93 3.46 194.32 3.46L194.32 3.46L194.32 3.46Q194.38 3.46 194.50 3.47L194.50 3.47L194.50 3.47Q194.63 3.49 194.70 3.49L194.70 3.49L194.70 3.49Q194.74 3.49 196.01 3.52L196.01 3.52L196.01 3.52Q197.29 3.56 198.11 3.56L198.11 3.56L198.11 3.56Q198.41 3.56 199.56 3.53L199.56 3.53L199.56 3.53Q200.72 3.50 200.91 3.50L200.91 3.50L200.91 3.50Q201.18 3.50 201.18 3.82L201.18 3.82L201.18 3.82Q201.18 3.91 201.10 4.38L201.10 4.38L201.10 4.38Q201.01 4.84 201.01 5.25L201.01 5.25L201.01 5.25Q201.01 5.38 200.94 5.47L200.94 5.47L200.94 5.47Q200.87 5.56 200.79 5.56L200.79 5.56L200.79 5.56Q200.58 5.56 200.58 5.26L200.58 5.26L200.58 5.26Q200.58 4.89 200.34 4.58L200.34 4.58L200.34 4.58Q200.10 4.27 199.75 4.26L199.75 4.26L199.75 4.26Q198.49 4.16 197.82 4.16L197.82 4.16L197.46 4.16L197.46 4.16Q196.73 4.16 196.61 4.26L196.61 4.26L196.61 4.26Q196.49 4.37 196.46 5.01L196.46 5.01L196.46 5.01Q196.41 6.02 196.41 7.35L196.41 7.35L196.41 7.35Q196.41 8.05 196.67 8.06L196.67 8.06L197.02 8.06L197.61 8.06L198.04 8.06L198.04 8.06Q198.88 8.06 199.16 8.01L199.16 8.01L199.16 8.01Q199.44 7.95 199.67 7.80L199.67 7.80L199.67 7.80Q199.93 7.62 199.99 7.28L199.99 7.28L199.99 7.28Q200.03 7.04 200.19 7.04L200.19 7.04L200.19 7.04Q200.31 7.04 200.34 7.08L200.34 7.08L200.34 7.08Q200.37 7.13 200.37 7.27L200.37 7.27L200.37 7.27Q200.37 7.36 200.31 7.91L200.31 7.91L200.31 7.91Q200.26 8.46 200.26 8.74L200.26 8.74L200.26 8.74Q200.26 9.00 200.28 9.24L200.28 9.24L200.28 9.24Q200.30 9.48 200.30 9.59L200.30 9.59L200.30 9.59Q200.30 9.94 200.20 9.94L200.20 9.94L200.20 9.94Q199.99 9.94 199.89 9.60L199.89 9.60L199.89 9.60Q199.70 9.02 199.54 8.92L199.54 8.92L199.54 8.92Q199.25 8.72 198.20 8.72L198.20 8.72L198.20 8.72Q197.78 8.72 197.52 8.72L197.52 8.72L197.52 8.72Q197.26 8.72 197.18 8.71L197.18 8.71L197.18 8.71Q197.11 8.71 197.06 8.71L197.06 8.71L197.06 8.71Q197.01 8.71 196.97 8.71L196.97 8.71L196.97 8.71Q196.39 8.71 196.39 8.97L196.39 8.97L196.39 8.97Q196.39 9.38 196.38 9.99L196.38 9.99L196.38 9.99Q196.36 10.60 196.36 10.99L196.36 10.99L196.36 11.55L196.36 11.55Q196.36 12.56 196.70 12.66L196.70 12.66L196.70 12.66Q197.05 12.77 197.30 12.77L197.30 12.77L197.30 12.77Q198.35 12.77 199.14 12.67L199.14 12.67L199.14 12.67Q199.93 12.57 200.33 12.42L200.33 12.42L200.33 12.42Q200.73 12.28 201.00 12.10L201.00 12.10L201.00 12.10Q201.26 11.93 201.34 11.78L201.34 11.78L201.34 11.78Q201.42 11.63 201.50 11.54L201.50 11.54L201.50 11.54Q201.57 11.44 201.66 11.44L201.66 11.44L201.66 11.44Q201.82 11.44 201.82 11.68L201.82 11.68L201.82 11.68Q201.82 12.28 201.22 12.89L201.22 12.89L201.22 12.89Q200.62 13.51 200.17 13.51L200.17 13.51L200.17 13.51Q199.16 13.51 197.90 13.44L197.90 13.44L197.90 13.44Q196.63 13.37 196.32 13.37L196.32 13.37L196.32 13.37Q195.93 13.37 195.34 13.43L195.34 13.43L195.34 13.43Q194.75 13.50 194.42 13.50L194.42 13.50L194.42 13.50Q194.12 13.50 194.12 13.36L194.12 13.36L194.12 13.36Q194.12 13.23 194.12 13.19L194.12 13.19L194.12 13.19Q194.12 13.15 194.17 13.12L194.17 13.12L194.17 13.12Q194.21 13.09 194.26 13.08L194.26 13.08L194.26 13.08Q194.31 13.08 194.44 13.03L194.44 13.03L194.44 13.03Q194.57 12.99 194.73 12.92L194.73 12.92L194.73 12.92Q195.06 12.75 195.17 12.26L195.17 12.26L195.17 12.26Q195.27 11.77 195.27 10.21L195.27 10.21L195.27 8.47L195.27 8.47Q195.27 8.09 195.29 7.29L195.29 7.29L195.29 7.29Q195.31 6.50 195.31 6.05L195.31 6.05L195.31 6.05Q195.31 5.67 195.29 4.77L195.29 4.77L195.29 4.77Q195.27 4.37 194.94 4.14L194.94 4.14L194.94 4.14Q194.60 3.92 194.15 3.91L194.15 3.91L194.15 3.91Q193.93 3.91 193.93 3.65ZM219.37 3.72L219.37 3.72L219.37 3.72Q219.37 3.50 219.69 3.50L219.69 3.50L219.69 3.50Q219.73 3.50 219.84 3.49L219.84 3.49L219.84 3.49Q219.95 3.49 220.21 3.49L220.21 3.49L220.21 3.49Q220.28 3.49 220.59 3.51L220.59 3.51L220.59 3.51Q220.91 3.53 221.05 3.53L221.05 3.53L221.05 3.53Q221.35 3.53 222.24 3.51L222.24 3.51L222.24 3.51Q223.12 3.49 223.36 3.49L223.36 3.49L223.36 3.49Q224.67 3.49 225.62 4.15L225.62 4.15L225.62 4.15Q226.58 4.82 226.58 6.06L226.58 6.06L226.58 6.06Q226.58 6.75 226.32 7.29L226.32 7.29L226.32 7.29Q226.07 7.83 225.72 8.13L225.72 8.13L225.72 8.13Q225.36 8.44 224.92 8.64L224.92 8.64L224.92 8.64Q224.48 8.85 224.13 8.91L224.13 8.91L224.13 8.91Q223.79 8.97 223.52 8.97L223.52 8.97L223.52 8.97Q223.08 8.97 222.61 8.87L222.61 8.87L222.61 8.87Q222.15 8.76 222.15 8.65L222.15 8.65L222.15 8.65Q222.15 8.44 222.33 8.44L222.33 8.44L222.33 8.44Q222.40 8.44 222.62 8.50L222.62 8.50L222.62 8.50Q222.84 8.55 223.05 8.55L223.05 8.55L223.05 8.55Q223.37 8.55 223.73 8.46L223.73 8.46L223.73 8.46Q224.10 8.37 224.49 8.17L224.49 8.17L224.49 8.17Q224.88 7.97 225.13 7.55L225.13 7.55L225.13 7.55Q225.39 7.14 225.39 6.59L225.39 6.59L225.39 6.59Q225.39 5.66 224.63 4.85L224.63 4.85L224.63 4.85Q223.87 4.05 222.54 4.05L222.54 4.05L222.54 4.05Q222.11 4.05 221.96 4.30L221.96 4.30L221.96 4.30Q221.80 4.56 221.80 5.47L221.80 5.47L221.80 5.47Q221.80 8.39 221.79 8.80L221.79 8.80L221.79 8.80Q221.77 9.21 221.77 11.26L221.77 11.26L221.77 11.26Q221.77 12.49 222.35 12.87L222.35 12.87L222.35 12.87Q222.50 12.96 222.73 12.99L222.73 12.99L222.73 12.99Q222.96 13.02 223.12 13.01L223.12 13.01L223.12 13.01Q223.27 13.01 223.39 13.07L223.39 13.07L223.39 13.07Q223.51 13.13 223.51 13.30L223.51 13.30L223.51 13.30Q223.51 13.54 223.19 13.54L223.19 13.54L223.19 13.54Q222.87 13.54 222.05 13.50L222.05 13.50L222.05 13.50Q221.24 13.47 221.19 13.47L221.19 13.47L221.19 13.47Q221.05 13.47 220.63 13.50L220.63 13.50L220.63 13.50Q220.22 13.52 219.88 13.52L219.88 13.52L219.88 13.52Q219.45 13.52 219.45 13.37L219.45 13.37L219.45 13.37Q219.45 13.29 219.47 13.23L219.47 13.23L219.47 13.23Q219.49 13.17 219.51 13.14L219.51 13.14L219.51 13.14Q219.53 13.10 219.60 13.08L219.60 13.08L219.60 13.08Q219.67 13.05 219.70 13.03L219.70 13.03L219.70 13.03Q219.73 13.02 219.84 13.00L219.84 13.00L219.84 13.00Q219.94 12.98 219.98 12.96L219.98 12.96L219.98 12.96Q220.01 12.95 220.07 12.94L220.07 12.94L220.07 12.94Q220.12 12.94 220.14 12.93L220.14 12.93L220.14 12.93Q220.16 12.92 220.21 12.89L220.21 12.89L220.21 12.89Q220.26 12.85 220.29 12.79L220.29 12.79L220.29 12.79Q220.32 12.73 220.37 12.62L220.37 12.62L220.37 12.62Q220.42 12.52 220.47 12.35L220.47 12.35L220.47 12.35Q220.57 12.08 220.63 10.25L220.63 10.25L220.63 10.25Q220.68 8.41 220.68 7.41L220.68 7.41L220.68 7.41Q220.68 6.54 220.68 5.80L220.68 5.80L220.68 5.80Q220.67 5.07 220.67 5.03L220.67 5.03L220.67 5.03Q220.67 4.65 220.43 4.28L220.43 4.28L220.43 4.28Q220.19 3.91 219.65 3.91L219.65 3.91L219.65 3.91Q219.37 3.91 219.37 3.72ZM234.26 3.71L234.26 3.71L234.26 3.71Q234.26 3.46 234.64 3.46L234.64 3.46L234.64 3.46Q234.70 3.46 234.82 3.47L234.82 3.47L234.82 3.47Q234.95 3.49 235.02 3.49L235.02 3.49L235.02 3.49Q235.16 3.49 235.54 3.51L235.54 3.51L235.54 3.51Q235.93 3.54 236.24 3.54L236.24 3.54L236.24 3.54Q236.67 3.54 237.16 3.51L237.16 3.51L237.16 3.51Q237.65 3.49 237.71 3.49L237.71 3.49L237.71 3.49Q237.94 3.49 237.94 3.63L237.94 3.63L237.94 3.63Q237.94 3.82 237.78 3.88L237.78 3.88L237.78 3.88Q237.61 3.95 237.41 3.97L237.41 3.97L237.41 3.97Q237.20 3.99 237.01 4.28L237.01 4.28L237.01 4.28Q236.82 4.56 236.80 5.14L236.80 5.14L236.80 5.14Q236.77 5.68 236.73 8.19L236.73 8.19L236.73 8.19Q236.68 10.70 236.68 10.99L236.68 10.99L236.68 11.55L236.68 11.55Q236.68 12.56 237.02 12.66L237.02 12.66L237.02 12.66Q237.37 12.77 237.62 12.77L237.62 12.77L237.62 12.77Q238.67 12.77 239.46 12.67L239.46 12.67L239.46 12.67Q240.25 12.57 240.65 12.42L240.65 12.42L240.65 12.42Q241.05 12.28 241.32 12.10L241.32 12.10L241.32 12.10Q241.58 11.93 241.66 11.78L241.66 11.78L241.66 11.78Q241.74 11.63 241.82 11.54L241.82 11.54L241.82 11.54Q241.89 11.44 241.98 11.44L241.98 11.44L241.98 11.44Q242.14 11.44 242.14 11.68L242.14 11.68L242.14 11.68Q242.14 12.28 241.54 12.89L241.54 12.89L241.54 12.89Q240.94 13.51 240.49 13.51L240.49 13.51L240.49 13.51Q239.48 13.51 238.22 13.44L238.22 13.44L238.22 13.44Q236.95 13.37 236.64 13.37L236.64 13.37L236.64 13.37Q236.25 13.37 235.74 13.43L235.74 13.43L235.74 13.43Q235.23 13.48 234.89 13.48L234.89 13.48L234.89 13.48Q234.49 13.48 234.49 13.31L234.49 13.31L234.49 13.31Q234.49 13.22 234.56 13.15L234.56 13.15L234.56 13.15Q234.64 13.09 234.71 13.09L234.71 13.09L234.71 13.09Q234.92 13.09 235.12 12.95L235.12 12.95L235.12 12.95Q235.37 12.75 235.48 12.23L235.48 12.23L235.48 12.23Q235.59 11.70 235.59 10.21L235.59 10.21L235.59 8.47L235.59 8.47Q235.59 8.09 235.61 7.29L235.61 7.29L235.61 7.29Q235.63 6.50 235.63 6.05L235.63 6.05L235.63 6.05Q235.63 5.67 235.61 4.77L235.61 4.77L235.61 4.77Q235.59 4.37 235.26 4.14L235.26 4.14L235.26 4.14Q234.92 3.92 234.47 3.91L234.47 3.91L234.47 3.91Q234.33 3.91 234.30 3.86L234.30 3.86L234.30 3.86Q234.26 3.81 234.26 3.71ZM249.70 13.33L249.70 13.33L249.70 13.33Q249.70 13.13 249.91 13.06L249.91 13.06L249.91 13.06Q250.36 12.89 250.70 12.31L250.70 12.31L250.70 12.31Q251.03 11.73 252.36 8.83L252.36 8.83L252.36 8.83Q253.74 5.87 254.79 3.63L254.79 3.63L254.79 3.63Q254.88 3.42 254.96 3.36L254.96 3.36L254.96 3.36Q255.04 3.30 255.21 3.30L255.21 3.30L255.21 3.30Q255.33 3.30 255.37 3.36L255.37 3.36L255.37 3.36Q255.42 3.42 255.56 3.82L255.56 3.82L255.56 3.82Q255.64 4.06 255.70 4.23L255.70 4.23L255.70 4.23Q255.77 4.40 255.91 4.77L255.91 4.77L255.91 4.77Q256.05 5.15 256.21 5.56L256.21 5.56L256.21 5.56Q256.66 6.66 257.76 9.22L257.76 9.22L257.76 9.22Q258.86 11.77 258.96 11.98L258.96 11.98L258.96 11.98Q259.20 12.46 259.49 12.71L259.49 12.71L259.49 12.71Q259.78 12.95 260.00 12.97L260.00 12.97L260.00 12.97Q260.22 12.99 260.37 13.04L260.37 13.04L260.37 13.04Q260.51 13.09 260.51 13.26L260.51 13.26L260.51 13.26Q260.51 13.47 260.13 13.47L260.13 13.47L260.13 13.47Q259.98 13.47 259.53 13.43L259.53 13.43L259.53 13.43Q259.08 13.38 258.87 13.38L258.87 13.38L258.87 13.38Q258.61 13.38 258.19 13.41L258.19 13.41L258.19 13.41Q257.77 13.44 257.57 13.44L257.57 13.44L257.57 13.44Q257.14 13.44 257.02 13.40L257.02 13.40L257.02 13.40Q256.90 13.37 256.90 13.24L256.90 13.24L256.90 13.24Q256.90 13.15 257.01 13.08L257.01 13.08L257.01 13.08Q257.12 13.02 257.25 13.00L257.25 13.00L257.25 13.00Q257.38 12.98 257.49 12.87L257.49 12.87L257.49 12.87Q257.60 12.77 257.60 12.59L257.60 12.59L257.60 12.59Q257.60 12.28 257.25 11.33L257.25 11.33L257.25 11.33Q256.90 10.37 256.66 9.93L256.66 9.93L256.66 9.93Q256.54 9.69 256.09 9.69L256.09 9.69L256.09 9.69Q256.02 9.69 255.47 9.70L255.47 9.70L255.47 9.70Q254.93 9.72 254.39 9.72L254.39 9.72L253.65 9.72L253.65 9.72Q253.02 9.72 252.86 9.79L252.86 9.79L252.86 9.79Q252.70 9.86 252.57 10.12L252.57 10.12L252.57 10.12Q252.49 10.30 252.29 10.70L252.29 10.70L252.29 10.70Q252.10 11.10 252.03 11.26L252.03 11.26L252.03 11.26Q251.96 11.41 251.85 11.65L251.85 11.65L251.85 11.65Q251.75 11.90 251.71 12.05L251.71 12.05L251.71 12.05Q251.68 12.19 251.68 12.31L251.68 12.31L251.68 12.31Q251.68 12.63 251.84 12.80L251.84 12.80L251.84 12.80Q252.00 12.96 252.20 12.98L252.20 12.98L252.20 12.98Q252.39 13.01 252.55 13.06L252.55 13.06L252.55 13.06Q252.71 13.12 252.71 13.26L252.71 13.26L252.71 13.26Q252.71 13.36 252.67 13.40L252.67 13.40L252.67 13.40Q252.63 13.45 252.48 13.45L252.48 13.45L252.48 13.45Q252.39 13.45 251.99 13.45L251.99 13.45L251.99 13.45Q251.59 13.44 251.31 13.44L251.31 13.44L251.31 13.44Q251.01 13.44 250.62 13.47L250.62 13.47L250.62 13.47Q250.24 13.50 250.11 13.50L250.11 13.50L250.11 13.50Q249.70 13.50 249.70 13.33ZM253.22 8.71L253.22 8.71L253.22 8.71Q253.22 8.89 253.34 8.93L253.34 8.93L253.34 8.93Q253.47 8.97 253.93 8.97L253.93 8.97L254.37 8.97L255.70 8.96L255.70 8.96Q256.24 8.96 256.24 8.74L256.24 8.74L256.24 8.74Q256.24 8.55 255.56 7.01L255.56 7.01L255.56 7.01Q254.87 5.46 254.69 5.46L254.69 5.46L254.69 5.46Q254.56 5.46 253.89 7.01L253.89 7.01L253.89 7.01Q253.22 8.55 253.22 8.71ZM268.07 3.77L268.07 3.77L268.07 3.77Q268.07 3.68 268.17 3.60L268.17 3.60L268.17 3.60Q268.27 3.53 268.42 3.53L268.42 3.53L268.42 3.53Q268.51 3.53 268.70 3.54L268.70 3.54L268.70 3.54Q268.90 3.54 268.95 3.54L268.95 3.54L268.95 3.54Q269.16 3.54 269.35 3.53L269.35 3.53L269.35 3.53Q269.53 3.51 269.64 3.51L269.64 3.51L269.64 3.51Q269.77 3.51 269.93 3.59L269.93 3.59L269.93 3.59Q270.10 3.67 270.13 3.75L270.13 3.75L270.13 3.75Q270.16 3.79 270.28 3.94L270.28 3.94L270.28 3.94Q270.41 4.09 270.62 4.33L270.62 4.33L270.62 4.33Q270.83 4.56 271.00 4.79L271.00 4.79L271.00 4.79Q272.90 7.27 276.09 10.77L276.09 10.77L276.09 10.77Q276.18 10.86 276.30 10.99L276.30 10.99L276.30 10.99Q276.42 11.12 276.47 11.18L276.47 11.18L276.47 11.18Q276.51 11.24 276.57 11.30L276.57 11.30L276.57 11.30Q276.63 11.35 276.66 11.38L276.66 11.38L276.66 11.38Q276.70 11.40 276.72 11.40L276.72 11.40L276.72 11.40Q276.86 11.40 276.86 10.53L276.86 10.53L276.86 8.89L276.86 8.89Q276.86 7.95 276.86 7.31L276.86 7.31L276.86 7.31Q276.85 6.66 276.84 6.38L276.84 6.38L276.84 6.38Q276.84 6.09 276.84 6.02L276.84 6.02L276.84 5.92L276.84 5.92Q276.84 5.45 276.77 5.11L276.77 5.11L276.77 5.11Q276.71 4.77 276.63 4.59L276.63 4.59L276.63 4.59Q276.54 4.41 276.38 4.28L276.38 4.28L276.38 4.28Q276.22 4.16 276.11 4.12L276.11 4.12L276.11 4.12Q276.00 4.09 275.79 4.05L275.79 4.05L275.79 4.05Q275.58 4.00 275.49 3.98L275.49 3.98L275.49 3.98Q275.21 3.89 275.21 3.74L275.21 3.74L275.21 3.74Q275.21 3.53 275.48 3.53L275.48 3.53L275.48 3.53Q275.56 3.53 276.15 3.54L276.15 3.54L276.15 3.54Q276.74 3.54 276.81 3.54L276.81 3.54L276.81 3.54Q277.14 3.54 277.56 3.53L277.56 3.53L277.56 3.53Q277.97 3.51 278.07 3.51L278.07 3.51L278.07 3.51Q278.31 3.51 278.40 3.56L278.40 3.56L278.40 3.56Q278.49 3.61 278.49 3.75L278.49 3.75L278.49 3.75Q278.49 3.81 278.41 3.86L278.41 3.86L278.41 3.86Q278.33 3.91 278.25 3.94L278.25 3.94L278.25 3.94Q278.17 3.98 278.08 4.00L278.08 4.00L278.00 4.03L278.00 4.03Q277.54 4.28 277.54 5.61L277.54 5.61L277.54 6.15L277.54 6.15Q277.54 7.21 277.46 9.83L277.46 9.83L277.46 9.83Q277.38 12.46 277.38 13.08L277.38 13.08L277.38 13.36L277.38 13.36Q277.38 13.68 277.19 13.68L277.19 13.68L277.19 13.68Q277.06 13.68 276.96 13.58L276.96 13.58L276.96 13.58Q272.31 8.19 271.41 7.17L271.41 7.17L271.41 7.17Q270.51 6.16 270.41 6.16L270.41 6.16L270.41 6.16Q270.27 6.16 270.27 7.11L270.27 7.11L270.27 7.11Q270.27 8.44 270.21 9.97L270.21 9.97L270.21 9.97Q270.16 11.51 270.16 11.65L270.16 11.65L270.16 11.65Q270.16 12.28 270.38 12.61L270.38 12.61L270.38 12.61Q270.59 12.94 270.84 12.98L270.84 12.98L270.84 12.98Q271.10 13.02 271.31 13.07L271.31 13.07L271.31 13.07Q271.53 13.12 271.53 13.26L271.53 13.26L271.53 13.26Q271.53 13.41 271.48 13.45L271.48 13.45L271.48 13.45Q271.43 13.50 271.31 13.50L271.31 13.50L271.31 13.50Q271.21 13.50 270.87 13.48L270.87 13.48L270.87 13.48Q270.52 13.47 269.81 13.47L269.81 13.47L269.81 13.47Q269.68 13.47 269.29 13.48L269.29 13.48L269.29 13.48Q268.90 13.50 268.62 13.50L268.62 13.50L268.62 13.50Q268.31 13.50 268.31 13.27L268.31 13.27L268.31 13.27Q268.31 13.15 268.49 13.11L268.49 13.11L268.49 13.11Q268.67 13.08 268.94 12.89L268.94 12.89L268.94 12.89Q269.21 12.71 269.35 12.21L269.35 12.21L269.35 12.21Q269.43 11.89 269.56 9.60L269.56 9.60L269.56 9.60Q269.68 7.32 269.68 6.45L269.68 6.45L269.68 6.45Q269.68 5.25 269.35 4.65L269.35 4.65L269.35 4.65Q269.01 4.06 268.25 3.98L268.25 3.98L268.25 3.98Q268.07 3.96 268.07 3.77ZM286.24 3.77L286.24 3.77L286.24 3.77Q286.24 3.68 286.34 3.60L286.34 3.60L286.34 3.60Q286.44 3.53 286.59 3.53L286.59 3.53L286.59 3.53Q286.68 3.53 286.87 3.54L286.87 3.54L286.87 3.54Q287.07 3.54 287.13 3.54L287.13 3.54L287.13 3.54Q287.34 3.54 287.52 3.53L287.52 3.53L287.52 3.53Q287.70 3.51 287.81 3.51L287.81 3.51L287.81 3.51Q287.94 3.51 288.11 3.59L288.11 3.59L288.11 3.59Q288.27 3.67 288.30 3.75L288.30 3.75L288.30 3.75Q288.33 3.79 288.46 3.94L288.46 3.94L288.46 3.94Q288.58 4.09 288.79 4.33L288.79 4.33L288.79 4.33Q289.00 4.56 289.17 4.79L289.17 4.79L289.17 4.79Q291.07 7.27 294.27 10.77L294.27 10.77L294.27 10.77Q294.35 10.86 294.47 10.99L294.47 10.99L294.47 10.99Q294.59 11.12 294.64 11.18L294.64 11.18L294.64 11.18Q294.69 11.24 294.74 11.30L294.74 11.30L294.74 11.30Q294.80 11.35 294.83 11.38L294.83 11.38L294.83 11.38Q294.87 11.40 294.90 11.40L294.90 11.40L294.90 11.40Q295.04 11.40 295.04 10.53L295.04 10.53L295.04 8.89L295.04 8.89Q295.04 7.95 295.03 7.31L295.03 7.31L295.03 7.31Q295.02 6.66 295.02 6.38L295.02 6.38L295.02 6.38Q295.01 6.09 295.01 6.02L295.01 6.02L295.01 5.92L295.01 5.92Q295.01 5.45 294.95 5.11L294.95 5.11L294.95 5.11Q294.88 4.77 294.80 4.59L294.80 4.59L294.80 4.59Q294.71 4.41 294.55 4.28L294.55 4.28L294.55 4.28Q294.39 4.16 294.28 4.12L294.28 4.12L294.28 4.12Q294.17 4.09 293.96 4.05L293.96 4.05L293.96 4.05Q293.75 4.00 293.66 3.98L293.66 3.98L293.66 3.98Q293.38 3.89 293.38 3.74L293.38 3.74L293.38 3.74Q293.38 3.53 293.65 3.53L293.65 3.53L293.65 3.53Q293.73 3.53 294.32 3.54L294.32 3.54L294.32 3.54Q294.91 3.54 294.98 3.54L294.98 3.54L294.98 3.54Q295.32 3.54 295.73 3.53L295.73 3.53L295.73 3.53Q296.14 3.51 296.24 3.51L296.24 3.51L296.24 3.51Q296.48 3.51 296.57 3.56L296.57 3.56L296.57 3.56Q296.66 3.61 296.66 3.75L296.66 3.75L296.66 3.75Q296.66 3.81 296.58 3.86L296.58 3.86L296.58 3.86Q296.51 3.91 296.42 3.94L296.42 3.94L296.42 3.94Q296.34 3.98 296.25 4.00L296.25 4.00L296.17 4.03L296.17 4.03Q295.71 4.28 295.71 5.61L295.71 5.61L295.71 6.15L295.71 6.15Q295.71 7.21 295.63 9.83L295.63 9.83L295.63 9.83Q295.55 12.46 295.55 13.08L295.55 13.08L295.55 13.36L295.55 13.36Q295.55 13.68 295.36 13.68L295.36 13.68L295.36 13.68Q295.23 13.68 295.13 13.58L295.13 13.58L295.13 13.58Q290.49 8.19 289.58 7.17L289.58 7.17L289.58 7.17Q288.68 6.16 288.58 6.16L288.58 6.16L288.58 6.16Q288.44 6.16 288.44 7.11L288.44 7.11L288.44 7.11Q288.44 8.44 288.39 9.97L288.39 9.97L288.39 9.97Q288.33 11.51 288.33 11.65L288.33 11.65L288.33 11.65Q288.33 12.28 288.55 12.61L288.55 12.61L288.55 12.61Q288.76 12.94 289.02 12.98L289.02 12.98L289.02 12.98Q289.27 13.02 289.49 13.07L289.49 13.07L289.49 13.07Q289.70 13.12 289.70 13.26L289.70 13.26L289.70 13.26Q289.70 13.41 289.65 13.45L289.65 13.45L289.65 13.45Q289.60 13.50 289.48 13.50L289.48 13.50L289.48 13.50Q289.38 13.50 289.04 13.48L289.04 13.48L289.04 13.48Q288.69 13.47 287.98 13.47L287.98 13.47L287.98 13.47Q287.85 13.47 287.46 13.48L287.46 13.48L287.46 13.48Q287.07 13.50 286.79 13.50L286.79 13.50L286.79 13.50Q286.48 13.50 286.48 13.27L286.48 13.27L286.48 13.27Q286.48 13.15 286.66 13.11L286.66 13.11L286.66 13.11Q286.85 13.08 287.11 12.89L287.11 12.89L287.11 12.89Q287.38 12.71 287.52 12.21L287.52 12.21L287.52 12.21Q287.60 11.89 287.73 9.60L287.73 9.60L287.73 9.60Q287.85 7.32 287.85 6.45L287.85 6.45L287.85 6.45Q287.85 5.25 287.52 4.65L287.52 4.65L287.52 4.65Q287.18 4.06 286.43 3.98L286.43 3.98L286.43 3.98Q286.24 3.96 286.24 3.77ZM304.42 3.65L304.42 3.65L304.42 3.65Q304.42 3.46 304.81 3.46L304.81 3.46L304.81 3.46Q304.86 3.46 304.99 3.47L304.99 3.47L304.99 3.47Q305.12 3.49 305.19 3.49L305.19 3.49L305.19 3.49Q305.23 3.49 306.50 3.52L306.50 3.52L306.50 3.52Q307.78 3.56 308.60 3.56L308.60 3.56L308.60 3.56Q308.90 3.56 310.05 3.53L310.05 3.53L310.05 3.53Q311.21 3.50 311.40 3.50L311.40 3.50L311.40 3.50Q311.67 3.50 311.67 3.82L311.67 3.82L311.67 3.82Q311.67 3.91 311.58 4.38L311.58 4.38L311.58 4.38Q311.50 4.84 311.50 5.25L311.50 5.25L311.50 5.25Q311.50 5.38 311.43 5.47L311.43 5.47L311.43 5.47Q311.36 5.56 311.28 5.56L311.28 5.56L311.28 5.56Q311.07 5.56 311.07 5.26L311.07 5.26L311.07 5.26Q311.07 4.89 310.83 4.58L310.83 4.58L310.83 4.58Q310.59 4.27 310.24 4.26L310.24 4.26L310.24 4.26Q308.98 4.16 308.31 4.16L308.31 4.16L307.94 4.16L307.94 4.16Q307.22 4.16 307.10 4.26L307.10 4.26L307.10 4.26Q306.98 4.37 306.95 5.01L306.95 5.01L306.95 5.01Q306.89 6.02 306.89 7.35L306.89 7.35L306.89 7.35Q306.89 8.05 307.16 8.06L307.16 8.06L307.51 8.06L308.10 8.06L308.53 8.06L308.53 8.06Q309.37 8.06 309.65 8.01L309.65 8.01L309.65 8.01Q309.93 7.95 310.16 7.80L310.16 7.80L310.16 7.80Q310.42 7.62 310.48 7.28L310.48 7.28L310.48 7.28Q310.52 7.04 310.67 7.04L310.67 7.04L310.67 7.04Q310.80 7.04 310.83 7.08L310.83 7.08L310.83 7.08Q310.86 7.13 310.86 7.27L310.86 7.27L310.86 7.27Q310.86 7.36 310.80 7.91L310.80 7.91L310.80 7.91Q310.74 8.46 310.74 8.74L310.74 8.74L310.74 8.74Q310.74 9.00 310.77 9.24L310.77 9.24L310.77 9.24Q310.79 9.48 310.79 9.59L310.79 9.59L310.79 9.59Q310.79 9.94 310.69 9.94L310.69 9.94L310.69 9.94Q310.48 9.94 310.38 9.60L310.38 9.60L310.38 9.60Q310.18 9.02 310.03 8.92L310.03 8.92L310.03 8.92Q309.74 8.72 308.69 8.72L308.69 8.72L308.69 8.72Q308.27 8.72 308.01 8.72L308.01 8.72L308.01 8.72Q307.75 8.72 307.67 8.71L307.67 8.71L307.67 8.71Q307.59 8.71 307.55 8.71L307.55 8.71L307.55 8.71Q307.50 8.71 307.45 8.71L307.45 8.71L307.45 8.71Q306.88 8.71 306.88 8.97L306.88 8.97L306.88 8.97Q306.88 9.38 306.87 9.99L306.87 9.99L306.87 9.99Q306.85 10.60 306.85 10.99L306.85 10.99L306.85 11.55L306.85 11.55Q306.85 12.56 307.19 12.66L307.19 12.66L307.19 12.66Q307.54 12.77 307.79 12.77L307.79 12.77L307.79 12.77Q308.84 12.77 309.63 12.67L309.63 12.67L309.63 12.67Q310.42 12.57 310.82 12.42L310.82 12.42L310.82 12.42Q311.22 12.28 311.49 12.10L311.49 12.10L311.49 12.10Q311.75 11.93 311.83 11.78L311.83 11.78L311.83 11.78Q311.91 11.63 311.98 11.54L311.98 11.54L311.98 11.54Q312.06 11.44 312.14 11.44L312.14 11.44L312.14 11.44Q312.31 11.44 312.31 11.68L312.31 11.68L312.31 11.68Q312.31 12.28 311.71 12.89L311.71 12.89L311.71 12.89Q311.11 13.51 310.66 13.51L310.66 13.51L310.66 13.51Q309.65 13.51 308.39 13.44L308.39 13.44L308.39 13.44Q307.12 13.37 306.81 13.37L306.81 13.37L306.81 13.37Q306.42 13.37 305.83 13.43L305.83 13.43L305.83 13.43Q305.24 13.50 304.91 13.50L304.91 13.50L304.91 13.50Q304.61 13.50 304.61 13.36L304.61 13.36L304.61 13.36Q304.61 13.23 304.61 13.19L304.61 13.19L304.61 13.19Q304.61 13.15 304.65 13.12L304.65 13.12L304.65 13.12Q304.70 13.09 304.75 13.08L304.75 13.08L304.75 13.08Q304.79 13.08 304.93 13.03L304.93 13.03L304.93 13.03Q305.06 12.99 305.21 12.92L305.21 12.92L305.21 12.92Q305.55 12.75 305.66 12.26L305.66 12.26L305.66 12.26Q305.76 11.77 305.76 10.21L305.76 10.21L305.76 8.47L305.76 8.47Q305.76 8.09 305.78 7.29L305.78 7.29L305.78 7.29Q305.80 6.50 305.80 6.05L305.80 6.05L305.80 6.05Q305.80 5.67 305.77 4.77L305.77 4.77L305.77 4.77Q305.76 4.37 305.42 4.14L305.42 4.14L305.42 4.14Q305.09 3.92 304.64 3.91L304.64 3.91L304.64 3.91Q304.42 3.91 304.42 3.65ZM319.87 3.70L319.87 3.70L319.87 3.70Q319.87 3.47 320.28 3.47L320.28 3.47L322.60 3.47L322.60 3.47Q322.92 3.47 323.34 3.45L323.34 3.45L323.34 3.45Q323.76 3.43 324.00 3.43L324.00 3.43L324.00 3.43Q325.26 3.43 326.16 4.07L326.16 4.07L326.16 4.07Q327.05 4.70 327.05 5.78L327.05 5.78L327.05 5.78Q327.05 6.50 326.78 7.03L326.78 7.03L326.78 7.03Q326.51 7.57 326.18 7.81L326.18 7.81L326.18 7.81Q325.85 8.05 325.58 8.22L325.58 8.22L325.58 8.22Q325.30 8.40 325.30 8.46L325.30 8.46L325.30 8.46Q325.30 8.62 326.48 10.27L326.48 10.27L326.48 10.27Q327.66 11.91 328.09 12.38L328.09 12.38L328.09 12.38Q328.62 13.03 329.38 13.03L329.38 13.03L329.38 13.03Q329.57 13.03 329.57 13.20L329.57 13.20L329.57 13.20Q329.57 13.41 329.41 13.48L329.41 13.48L329.41 13.48Q329.24 13.55 328.54 13.55L328.54 13.55L328.54 13.55Q327.88 13.55 327.33 13.23L327.33 13.23L327.33 13.23Q326.63 12.82 324.97 10.09L324.97 10.09L324.97 10.09Q324.87 9.94 324.83 9.87L324.83 9.87L324.83 9.87Q324.16 8.78 323.79 8.78L323.79 8.78L323.50 8.78L322.64 8.78L322.64 8.78Q322.48 8.78 322.44 8.92L322.44 8.92L322.44 8.92Q322.41 9.06 322.41 9.77L322.41 9.77L322.41 9.77Q322.41 10.44 322.41 10.88L322.41 10.88L322.41 10.88Q322.41 11.31 322.41 11.43L322.41 11.43L322.41 11.43Q322.42 11.55 322.42 11.63L322.42 11.63L322.42 11.63Q322.42 11.70 322.42 11.75L322.42 11.75L322.42 11.75Q322.42 12.32 322.69 12.63L322.69 12.63L322.69 12.63Q322.95 12.95 323.28 13.00L323.28 13.00L323.28 13.00Q323.61 13.05 323.88 13.11L323.88 13.11L323.88 13.11Q324.14 13.17 324.14 13.31L324.14 13.31L324.14 13.31Q324.14 13.54 323.89 13.54L323.89 13.54L323.89 13.54Q323.88 13.54 322.92 13.49L322.92 13.49L322.92 13.49Q321.97 13.44 321.89 13.44L321.89 13.44L321.89 13.44Q321.48 13.44 320.92 13.47L320.92 13.47L320.92 13.47Q320.36 13.50 320.35 13.50L320.35 13.50L320.35 13.50Q320.05 13.50 320.05 13.27L320.05 13.27L320.05 13.27Q320.05 13.12 320.24 13.05L320.24 13.05L320.24 13.05Q320.42 12.99 320.64 12.96L320.64 12.96L320.64 12.96Q320.87 12.94 321.05 12.66L321.05 12.66L321.05 12.66Q321.23 12.38 321.23 11.86L321.23 11.86L321.23 11.86Q321.23 11.49 321.24 9.90L321.24 9.90L321.24 9.90Q321.24 8.30 321.24 7.45L321.24 7.45L321.24 7.45Q321.24 6.58 321.24 5.86L321.24 5.86L321.24 5.86Q321.23 5.14 321.23 5.08L321.23 5.08L321.23 5.08Q321.23 4.56 321.02 4.29L321.02 4.29L321.02 4.29Q320.81 4.02 320.55 3.98L320.55 3.98L320.55 3.98Q320.29 3.95 320.08 3.89L320.08 3.89L320.08 3.89Q319.87 3.84 319.87 3.70ZM322.41 5.54L322.41 5.94L322.41 5.94Q322.41 7.38 322.42 7.72L322.42 7.72L322.42 7.72Q322.43 8.06 322.52 8.12L322.52 8.12L322.52 8.12Q322.73 8.25 323.12 8.25L323.12 8.25L323.26 8.25L323.67 8.25L323.67 8.25Q324.86 8.25 325.37 7.70L325.37 7.70L325.37 7.70Q325.88 7.15 325.88 6.30L325.88 6.30L325.88 6.30Q325.88 5.43 325.20 4.72L325.20 4.72L325.20 4.72Q324.52 4.00 323.15 4.00L323.15 4.00L323.15 4.00Q322.63 4.00 322.52 4.28L322.52 4.28L322.52 4.28Q322.41 4.55 322.41 5.54L322.41 5.54Z"></path></g></svg>