<svg data-v-423bf9ae="" xmlns="http://www.w3.org/2000/svg" viewBox="0 0 369.7425476020379 60" class="font"><!----><!----><!----><g data-v-423bf9ae="" id="dda3b178-9141-4d42-b133-db8974658d56" fill="white" transform="matrix(5.940593835033989,0,0,5.940593835033989,1.0099060725031848,-19.24752479741978)"><path d="M7.10 13.15L8.71 13.15L5.02 3.82L3.51 3.82L-0.17 13.15L1.43 13.15L2.32 10.75L6.21 10.73ZM2.76 9.57L4.27 5.45L5.78 9.57ZM12.53 13.34C13.45 13.34 14.19 13.07 14.80 12.60L13.99 11.58C13.62 11.93 13.11 12.13 12.56 12.13C11.26 12.13 10.49 11.14 10.49 9.84C10.49 8.55 11.26 7.57 12.56 7.57C13.11 7.57 13.62 7.77 13.99 8.12L14.80 7.10C14.19 6.64 13.45 6.36 12.53 6.36C10.47 6.36 9.04 7.89 9.04 9.84C9.04 11.81 10.47 13.34 12.53 13.34ZM18.97 11.93C18.89 11.99 18.65 12.06 18.38 12.06C17.92 12.06 17.65 11.80 17.65 11.20L17.65 7.67L19.05 7.67L19.05 6.53L17.65 6.53L17.65 4.64L16.23 4.64L16.23 6.53L15.36 6.53L15.36 7.67L16.23 7.67L16.23 11.32C16.23 12.91 17.22 13.27 18.04 13.27C18.56 13.27 18.99 13.17 19.16 13.08ZM21.20 5.26C21.71 5.26 22.12 4.86 22.12 4.36C22.12 3.86 21.71 3.46 21.20 3.46C20.69 3.46 20.29 3.86 20.29 4.36C20.29 4.86 20.69 5.26 21.20 5.26ZM20.52 13.15L21.90 13.15L21.90 6.53L20.52 6.53ZM30.13 9.70C30.13 7.73 28.80 6.36 26.88 6.36C24.88 6.36 23.46 7.89 23.46 9.84C23.46 11.80 24.86 13.31 27.04 13.31C28.19 13.31 29.15 12.92 29.75 12.25L28.77 11.46C28.35 11.94 27.78 12.19 27.02 12.19C25.78 12.19 25.05 11.33 24.95 10.15L30.13 10.15ZM26.88 7.50C27.91 7.50 28.58 8.12 28.73 9.17L25.01 9.17C25.21 8.17 25.90 7.50 26.88 7.50ZM36.02 6.53L34.10 11.48L32.16 6.53L30.65 6.53L33.51 13.15L34.68 13.15L37.54 6.53ZM40.41 13.34C41.34 13.34 42.22 12.94 42.67 12.31L42.89 13.15L44.09 13.15L44.09 9.19C44.09 7.31 43.11 6.36 41.15 6.36C40.18 6.36 39.36 6.61 38.73 7.10L39.36 8.08C39.80 7.70 40.37 7.51 41.01 7.51C42.06 7.51 42.67 8.01 42.67 8.90L42.67 9.45L42.50 9.39C39.62 8.31 38.05 9.79 38.05 11.21C38.05 12.45 39.10 13.34 40.41 13.34ZM40.83 12.25C40.00 12.25 39.54 11.72 39.54 11.11C39.54 10.34 40.43 9.57 42.48 10.30L42.67 10.35L42.67 10.54C42.67 11.62 41.80 12.25 40.83 12.25ZM50.69 3.24L50.69 7.32C50.18 6.72 49.45 6.36 48.50 6.36C46.78 6.36 45.41 7.69 45.41 9.84C45.41 12.00 46.78 13.31 48.50 13.31C49.50 13.31 50.27 12.91 50.78 12.25L50.95 13.15L52.11 13.15L52.11 3.24ZM48.84 12.12C47.64 12.12 46.86 11.14 46.86 9.84C46.86 8.55 47.64 7.55 48.84 7.55C50.08 7.55 50.88 8.55 50.88 9.84C50.88 11.14 50.08 12.12 48.84 12.12ZM54.72 5.26C55.23 5.26 55.64 4.86 55.64 4.36C55.64 3.86 55.23 3.46 54.72 3.46C54.21 3.46 53.80 3.86 53.80 4.36C53.80 4.86 54.21 5.26 54.72 5.26ZM54.03 13.15L55.42 13.15L55.42 6.53L54.03 6.53ZM56.70 12.22C57.18 12.88 58.19 13.34 59.43 13.34C61.06 13.34 62.07 12.54 62.07 11.35C62.07 9.00 58.57 9.79 58.57 8.36C58.57 7.86 58.95 7.53 59.72 7.51C60.20 7.50 60.75 7.73 61.15 8.11L61.92 7.22C61.48 6.75 60.64 6.36 59.66 6.36C58.09 6.36 57.12 7.19 57.12 8.41C57.12 10.82 60.56 10.09 60.56 11.38C60.56 11.87 60.16 12.21 59.34 12.21C58.68 12.21 58.09 11.97 57.60 11.35Z"></path></g><!----><!----></svg>